<mxfile host="app.diagrams.net" modified="2023-06-25T08:55:23.461Z" agent="Mozilla/5.0 (Macintosh; Intel Mac OS X 10_15_7) AppleWebKit/537.36 (KHTML, like Gecko) Chrome/114.0.0.0 Safari/537.36" etag="prxtF7OFxvukchsxOhdW" version="21.3.8" type="github">
  <diagram name="第 1 页" id="8sEBYS5rgmk9TC3wsvUR">
    <mxGraphModel dx="1771" dy="1820" grid="1" gridSize="10" guides="1" tooltips="1" connect="1" arrows="1" fold="1" page="1" pageScale="1" pageWidth="827" pageHeight="1169" math="0" shadow="0">
      <root>
        <mxCell id="0" />
        <mxCell id="1" parent="0" />
        <mxCell id="HvqN3O60-C0Y6aMKzHWY-27" style="edgeStyle=orthogonalEdgeStyle;rounded=0;orthogonalLoop=1;jettySize=auto;html=1;" edge="1" parent="1" source="HvqN3O60-C0Y6aMKzHWY-1" target="HvqN3O60-C0Y6aMKzHWY-14">
          <mxGeometry relative="1" as="geometry" />
        </mxCell>
        <mxCell id="HvqN3O60-C0Y6aMKzHWY-1" value="check_helper_call" style="rounded=1;whiteSpace=wrap;html=1;fontFamily=Verdana;" vertex="1" parent="1">
          <mxGeometry x="165" y="490" width="160" height="60" as="geometry" />
        </mxCell>
        <mxCell id="HvqN3O60-C0Y6aMKzHWY-26" style="edgeStyle=orthogonalEdgeStyle;rounded=0;orthogonalLoop=1;jettySize=auto;html=1;" edge="1" parent="1" source="HvqN3O60-C0Y6aMKzHWY-2" target="HvqN3O60-C0Y6aMKzHWY-1">
          <mxGeometry relative="1" as="geometry" />
        </mxCell>
        <mxCell id="HvqN3O60-C0Y6aMKzHWY-2" value="do_check" style="rounded=1;whiteSpace=wrap;html=1;fontFamily=Verdana;" vertex="1" parent="1">
          <mxGeometry x="165" y="370" width="160" height="60" as="geometry" />
        </mxCell>
        <mxCell id="HvqN3O60-C0Y6aMKzHWY-25" style="edgeStyle=orthogonalEdgeStyle;rounded=0;orthogonalLoop=1;jettySize=auto;html=1;" edge="1" parent="1" source="HvqN3O60-C0Y6aMKzHWY-3" target="HvqN3O60-C0Y6aMKzHWY-2">
          <mxGeometry relative="1" as="geometry" />
        </mxCell>
        <mxCell id="HvqN3O60-C0Y6aMKzHWY-3" value="do_check_common" style="rounded=1;whiteSpace=wrap;html=1;fontFamily=Verdana;" vertex="1" parent="1">
          <mxGeometry x="165" y="260" width="160" height="60" as="geometry" />
        </mxCell>
        <mxCell id="HvqN3O60-C0Y6aMKzHWY-24" style="edgeStyle=orthogonalEdgeStyle;rounded=0;orthogonalLoop=1;jettySize=auto;html=1;" edge="1" parent="1" source="HvqN3O60-C0Y6aMKzHWY-4" target="HvqN3O60-C0Y6aMKzHWY-3">
          <mxGeometry relative="1" as="geometry" />
        </mxCell>
        <mxCell id="HvqN3O60-C0Y6aMKzHWY-4" value="do_check_main" style="rounded=1;whiteSpace=wrap;html=1;fontFamily=Verdana;" vertex="1" parent="1">
          <mxGeometry x="285" y="90" width="160" height="60" as="geometry" />
        </mxCell>
        <mxCell id="HvqN3O60-C0Y6aMKzHWY-5" value="do_check_subprogs" style="rounded=1;whiteSpace=wrap;html=1;fontFamily=Verdana;" vertex="1" parent="1">
          <mxGeometry x="35" y="90" width="160" height="60" as="geometry" />
        </mxCell>
        <mxCell id="HvqN3O60-C0Y6aMKzHWY-6" value="bpf_check" style="rounded=1;whiteSpace=wrap;html=1;fontFamily=Verdana;" vertex="1" parent="1">
          <mxGeometry x="160" y="-130" width="340" height="60" as="geometry" />
        </mxCell>
        <mxCell id="HvqN3O60-C0Y6aMKzHWY-19" style="edgeStyle=orthogonalEdgeStyle;rounded=0;orthogonalLoop=1;jettySize=auto;html=1;" edge="1" parent="1" source="HvqN3O60-C0Y6aMKzHWY-7" target="HvqN3O60-C0Y6aMKzHWY-10">
          <mxGeometry relative="1" as="geometry" />
        </mxCell>
        <mxCell id="HvqN3O60-C0Y6aMKzHWY-20" style="edgeStyle=orthogonalEdgeStyle;rounded=0;orthogonalLoop=1;jettySize=auto;html=1;" edge="1" parent="1" source="HvqN3O60-C0Y6aMKzHWY-7" target="HvqN3O60-C0Y6aMKzHWY-11">
          <mxGeometry relative="1" as="geometry" />
        </mxCell>
        <mxCell id="HvqN3O60-C0Y6aMKzHWY-21" style="edgeStyle=orthogonalEdgeStyle;rounded=0;orthogonalLoop=1;jettySize=auto;html=1;" edge="1" parent="1" source="HvqN3O60-C0Y6aMKzHWY-7" target="HvqN3O60-C0Y6aMKzHWY-6">
          <mxGeometry relative="1" as="geometry" />
        </mxCell>
        <mxCell id="HvqN3O60-C0Y6aMKzHWY-7" value="bpf_prog_load" style="rounded=1;whiteSpace=wrap;html=1;fontFamily=Verdana;" vertex="1" parent="1">
          <mxGeometry x="-50" y="-290" width="160" height="60" as="geometry" />
        </mxCell>
        <mxCell id="HvqN3O60-C0Y6aMKzHWY-18" style="edgeStyle=orthogonalEdgeStyle;rounded=0;orthogonalLoop=1;jettySize=auto;html=1;" edge="1" parent="1" source="HvqN3O60-C0Y6aMKzHWY-8" target="HvqN3O60-C0Y6aMKzHWY-7">
          <mxGeometry relative="1" as="geometry" />
        </mxCell>
        <mxCell id="HvqN3O60-C0Y6aMKzHWY-8" value="__sys_bpf" style="rounded=1;whiteSpace=wrap;html=1;fontFamily=Verdana;" vertex="1" parent="1">
          <mxGeometry x="520" y="-430" width="160" height="60" as="geometry" />
        </mxCell>
        <mxCell id="HvqN3O60-C0Y6aMKzHWY-17" style="edgeStyle=orthogonalEdgeStyle;rounded=0;orthogonalLoop=1;jettySize=auto;html=1;" edge="1" parent="1" source="HvqN3O60-C0Y6aMKzHWY-9" target="HvqN3O60-C0Y6aMKzHWY-8">
          <mxGeometry relative="1" as="geometry" />
        </mxCell>
        <mxCell id="HvqN3O60-C0Y6aMKzHWY-9" value="BPF_CALL_3(bpf_sys_bpf, int, cmd, union bpf_attr *, attr, u32, attr_size)" style="rounded=1;whiteSpace=wrap;html=1;fontFamily=Verdana;" vertex="1" parent="1">
          <mxGeometry x="350" y="-550" width="500" height="60" as="geometry" />
        </mxCell>
        <mxCell id="HvqN3O60-C0Y6aMKzHWY-10" value="bpf_prog_load_check_attach" style="rounded=1;whiteSpace=wrap;html=1;fontFamily=Verdana;" vertex="1" parent="1">
          <mxGeometry x="-350" y="-130" width="240" height="60" as="geometry" />
        </mxCell>
        <mxCell id="HvqN3O60-C0Y6aMKzHWY-11" value="bpf_prog_alloc" style="rounded=1;whiteSpace=wrap;html=1;fontFamily=Verdana;" vertex="1" parent="1">
          <mxGeometry x="-60" y="-130" width="150" height="60" as="geometry" />
        </mxCell>
        <mxCell id="HvqN3O60-C0Y6aMKzHWY-22" style="edgeStyle=orthogonalEdgeStyle;rounded=0;orthogonalLoop=1;jettySize=auto;html=1;" edge="1" parent="1" source="HvqN3O60-C0Y6aMKzHWY-12" target="HvqN3O60-C0Y6aMKzHWY-5">
          <mxGeometry relative="1" as="geometry" />
        </mxCell>
        <mxCell id="HvqN3O60-C0Y6aMKzHWY-23" style="edgeStyle=orthogonalEdgeStyle;rounded=0;orthogonalLoop=1;jettySize=auto;html=1;" edge="1" parent="1" source="HvqN3O60-C0Y6aMKzHWY-12" target="HvqN3O60-C0Y6aMKzHWY-4">
          <mxGeometry relative="1" as="geometry" />
        </mxCell>
        <mxCell id="HvqN3O60-C0Y6aMKzHWY-12" value="&lt;font color=&quot;#ff0000&quot;&gt;env-&amp;gt;ops = bpf_verifier_ops[env-&amp;gt;prog-&amp;gt;type];&lt;/font&gt;" style="rounded=1;whiteSpace=wrap;html=1;fontFamily=Verdana;" vertex="1" parent="1">
          <mxGeometry x="160" y="-70" width="340" height="60" as="geometry" />
        </mxCell>
        <mxCell id="HvqN3O60-C0Y6aMKzHWY-28" style="edgeStyle=orthogonalEdgeStyle;rounded=0;orthogonalLoop=1;jettySize=auto;html=1;" edge="1" parent="1" source="HvqN3O60-C0Y6aMKzHWY-14" target="HvqN3O60-C0Y6aMKzHWY-16">
          <mxGeometry relative="1" as="geometry" />
        </mxCell>
        <mxCell id="HvqN3O60-C0Y6aMKzHWY-14" value="&lt;div&gt;&amp;nbsp; &amp;nbsp; if (env-&amp;gt;ops-&amp;gt;get_func_proto)&lt;span style=&quot;&quot;&gt;&lt;/span&gt;&lt;/div&gt;&lt;div&gt;&lt;span style=&quot;&quot;&gt;&lt;font color=&quot;#ff0000&quot;&gt;&lt;span style=&quot;&quot;&gt;&lt;span style=&quot;white-space: pre;&quot;&gt;&amp;nbsp;&amp;nbsp;&amp;nbsp;&amp;nbsp;&lt;/span&gt;&lt;span style=&quot;white-space: pre;&quot;&gt;&amp;nbsp;&amp;nbsp;&amp;nbsp;&amp;nbsp;&lt;/span&gt;&lt;/span&gt;fn = env-&amp;gt;ops-&amp;gt;get_func_proto(func_id, env-&amp;gt;prog);&lt;/font&gt;&lt;/span&gt;&lt;/div&gt;&lt;div&gt;&lt;span style=&quot;&quot;&gt;&lt;span style=&quot;&quot;&gt;&lt;span style=&quot;white-space: pre;&quot;&gt;&amp;nbsp;&amp;nbsp;&amp;nbsp;&amp;nbsp;&lt;/span&gt;&lt;/span&gt;if (!fn) {&lt;/span&gt;&lt;/div&gt;&lt;div&gt;&lt;span style=&quot;&quot;&gt;&lt;span style=&quot;&quot;&gt;&lt;span style=&quot;white-space: pre;&quot;&gt;&amp;nbsp;&amp;nbsp;&amp;nbsp;&amp;nbsp;&lt;/span&gt;&lt;span style=&quot;white-space: pre;&quot;&gt;&amp;nbsp;&amp;nbsp;&amp;nbsp;&amp;nbsp;&lt;/span&gt;&lt;/span&gt;verbose(env, &quot;unknown func %s#%d\n&quot;, func_id_name(func_id),&lt;/span&gt;&lt;/div&gt;&lt;div&gt;&lt;span style=&quot;&quot;&gt;&lt;span style=&quot;&quot;&gt;&lt;span style=&quot;white-space: pre;&quot;&gt;&amp;nbsp;&amp;nbsp;&amp;nbsp;&amp;nbsp;&lt;/span&gt;&lt;span style=&quot;white-space: pre;&quot;&gt;&amp;nbsp;&amp;nbsp;&amp;nbsp;&amp;nbsp;&lt;/span&gt;&lt;span style=&quot;white-space: pre;&quot;&gt;&amp;nbsp;&amp;nbsp;&amp;nbsp;&amp;nbsp;&lt;/span&gt;&lt;/span&gt;func_id);&lt;/span&gt;&lt;/div&gt;&lt;div&gt;&lt;span style=&quot;&quot;&gt;&lt;span style=&quot;&quot;&gt;&lt;span style=&quot;white-space: pre;&quot;&gt;&amp;nbsp;&amp;nbsp;&amp;nbsp;&amp;nbsp;&lt;/span&gt;&lt;span style=&quot;white-space: pre;&quot;&gt;&amp;nbsp;&amp;nbsp;&amp;nbsp;&amp;nbsp;&lt;/span&gt;&lt;/span&gt;return -EINVAL;&lt;/span&gt;&lt;/div&gt;&lt;div&gt;&lt;span style=&quot;&quot;&gt;&lt;span style=&quot;&quot;&gt;&lt;span style=&quot;white-space: pre;&quot;&gt;&amp;nbsp;&amp;nbsp;&amp;nbsp;&amp;nbsp;&lt;/span&gt;&lt;/span&gt;}&lt;/span&gt;&lt;/div&gt;" style="rounded=1;whiteSpace=wrap;html=1;fontFamily=Verdana;align=left;" vertex="1" parent="1">
          <mxGeometry x="165" y="620" width="445" height="150" as="geometry" />
        </mxCell>
        <mxCell id="HvqN3O60-C0Y6aMKzHWY-16" value="sysctl_func_proto" style="rounded=1;whiteSpace=wrap;html=1;fontFamily=Verdana;" vertex="1" parent="1">
          <mxGeometry x="210" y="870" width="160" height="60" as="geometry" />
        </mxCell>
      </root>
    </mxGraphModel>
  </diagram>
</mxfile>
